<?xml version="1.0" encoding="UTF-8" standalone="no"?>
<svg
   viewBox="0 0 200 200"
   version="1.1"
   id="svg5"
   sodipodi:docname="icon.svg"
   inkscape:version="1.4.2 (ebf0e94, 2025-05-08)"
   xmlns:inkscape="http://www.inkscape.org/namespaces/inkscape"
   xmlns:sodipodi="http://sodipodi.sourceforge.net/DTD/sodipodi-0.dtd"
   xmlns="http://www.w3.org/2000/svg"
   xmlns:svg="http://www.w3.org/2000/svg">
  <defs
     id="defs5" />
  <sodipodi:namedview
     id="namedview5"
     pagecolor="#505050"
     bordercolor="#eeeeee"
     borderopacity="1"
     inkscape:showpageshadow="0"
     inkscape:pageopacity="0"
     inkscape:pagecheckerboard="0"
     inkscape:deskcolor="#505050"
     inkscape:zoom="1.7111984"
     inkscape:cx="89.411023"
     inkscape:cy="182.32836"
     inkscape:window-width="1112"
     inkscape:window-height="1179"
     inkscape:window-x="0"
     inkscape:window-y="0"
     inkscape:window-maximized="0"
     inkscape:current-layer="svg5" />
  <g
     id="g11"
     transform="matrix(1.1111111,0,0,1.1111111,-11.111111,-11.111111)">
    <circle
       style="fill:#1e1e1e;fill-opacity:1;stroke-width:1.00331"
       id="path7"
       cx="100"
       cy="100"
       r="90" />
    <path
       d="M 32.298762,127.2278 56.318859,117.11043"
       stroke="#606060"
       stroke-width="5.21276"
       fill="none"
       id="path2" />
    <path
       d="M 152.39926,76.640968 176.41935,66.523636"
       stroke="#606060"
       stroke-width="5.21276"
       fill="none"
       id="path3" />
    <polygon
       points="182,62 258,100 182,138 "
       fill="#a0a0a0"
       stroke="#606060"
       stroke-width="4"
       id="polygon4"
       transform="matrix(1.2010049,-0.50586812,0.50586812,1.2010049,-210.44883,88.066208)" />
    <polygon
       points="253.4601,91.089935 254.90982,90.48943 256.43567,90.12312 258,90 259.56433,90.12312 261.09015,90.48943 262.53992,91.089935 263.87787,91.90983 265.07108,92.92893 266.09015,94.12215 266.91006,95.4601 267.51056,96.90983 267.8769,98.43565 268,100 267.8769,101.56435 267.51056,103.09017 266.91006,104.53991 266.09015,105.87785 265.07108,107.07107 263.87784,108.09017 262.53992,108.91007 261.09015,109.51057 259.56433,109.87688 258,110 256.43567,109.87688 254.90982,109.51057 253.4601,108.91007 252.12216,108.09017 250.92894,107.07107 249.90982,105.87785 249.08994,104.53991 248.48944,103.09017 248.12314,101.56435 248,100 248.12314,98.43565 248.48944,96.90983 249.08994,95.46009 249.90982,94.12215 250.92894,92.928925 252.12216,91.90983 "
       fill="#a0a0a0"
       stroke="#606060"
       stroke-width="4"
       id="polygon5"
       transform="matrix(1.2010049,-0.50586812,0.50586812,1.2010049,-210.44883,88.066208)" />
  </g>
</svg>
